<?xml version="1.0" standalone="no"?>
<!DOCTYPE svg PUBLIC "-//W3C//DTD SVG 20010904//EN"
 "http://www.w3.org/TR/2001/REC-SVG-20010904/DTD/svg10.dtd">
<svg version="1.0" xmlns="http://www.w3.org/2000/svg"
 width="705.000000pt" height="1044.000000pt" viewBox="0 0 705.000000 1044.000000"
 preserveAspectRatio="xMidYMid meet">

<g transform="translate(0.000000,1044.000000) scale(0.100000,-0.100000)"
fill="#000000" stroke="none">
<path d="M3865 10316 c-79 -84 -115 -222 -122 -471 -17 -567 174 -1119 635
-1835 34 -52 60 -96 58 -97 -2 -2 -36 4 -77 12 -179 39 -339 56 -554 62 l-220
5 -35 27 c-146 115 -273 191 -570 343 -582 299 -808 465 -1107 816 -58 67
-114 127 -125 133 -73 39 -122 -78 -98 -239 53 -350 329 -802 715 -1169 l125
-120 -72 -28 c-242 -94 -544 -272 -788 -464 -127 -100 -437 -410 -540 -541
-295 -372 -522 -843 -615 -1280 -15 -69 -28 -130 -30 -137 -3 -8 -16 -8 -51 3
-140 42 -294 -9 -294 -96 0 -33 17 -54 212 -255 l77 -80 5 -235 c5 -255 22
-423 61 -619 131 -649 445 -1218 933 -1693 223 -216 458 -390 720 -533 67 -37
122 -69 122 -71 0 -2 -7 -48 -16 -102 -17 -106 -14 -199 10 -256 15 -37 67
-76 101 -76 18 0 20 -7 21 -78 2 -156 54 -280 130 -313 37 -17 44 -24 44 -49
0 -46 35 -144 69 -193 17 -26 52 -59 77 -73 36 -21 44 -31 40 -48 -31 -124
-26 -268 12 -342 77 -150 249 -142 351 16 35 54 81 187 81 233 0 21 14 22 43
3 22 -15 49 -19 99 -17 40 2 103 62 122 118 25 72 20 217 -10 316 -5 17 -3 17
35 -2 60 -31 125 -28 161 7 63 63 57 198 -14 343 -20 40 -36 74 -36 76 0 2 15
3 33 3 46 0 96 34 115 79 l16 37 183 12 c203 14 429 49 602 93 l115 30 25 -33
c446 -574 1211 -1219 1419 -1195 112 12 196 161 233 410 18 117 15 490 -5 682
-33 320 -107 747 -170 980 l-24 89 57 66 c440 500 715 1139 780 1814 14 139
14 517 1 661 -58 627 -299 1223 -696 1720 -106 133 -373 402 -504 507 -80 64
-287 214 -327 236 -6 4 -23 63 -37 132 -49 245 -120 458 -217 653 -116 233
-195 353 -410 622 -482 604 -583 785 -739 1323 -34 116 -76 141 -135 78z m79
-73 c8 -27 29 -96 46 -155 113 -397 258 -644 705 -1203 177 -221 220 -282 305
-424 151 -258 257 -535 314 -827 38 -198 50 -343 43 -559 -8 -242 -41 -427
-112 -634 -30 -88 -31 -101 -7 -95 31 8 126 -185 273 -551 143 -356 203 -496
294 -690 30 -64 55 -118 55 -119 0 -1 -44 4 -97 12 -131 18 -382 10 -518 -18
-55 -11 -103 -20 -106 -20 -3 0 1 33 9 73 23 117 20 359 -7 487 -53 249 -191
505 -318 589 -68 45 -85 39 -36 -11 l42 -43 -40 -49 c-120 -149 -178 -387
-166 -681 7 -169 27 -295 67 -418 28 -86 29 -93 13 -105 -28 -20 -193 -70
-267 -80 -64 -8 -68 -8 -82 14 -25 37 -88 55 -216 61 l-117 6 24 47 c59 116
91 335 81 545 -12 253 -47 426 -115 570 -37 77 -86 143 -98 131 -3 -3 0 -19 7
-35 11 -26 9 -34 -10 -61 -12 -16 -23 -30 -25 -30 -7 0 -36 145 -46 227 -23
187 42 278 146 207 45 -30 52 -37 90 -89 17 -22 33 -42 36 -45 4 -3 18 -27 33
-55 l27 -50 -6 45 c-3 25 -8 54 -11 66 -4 15 15 39 83 105 98 94 182 155 276
200 87 41 114 44 196 21 76 -22 84 -14 20 19 -63 32 -176 57 -294 65 -59 4
-101 10 -94 15 33 18 180 40 251 38 42 -2 80 -1 83 3 19 19 -204 168 -251 168
-7 0 -16 5 -20 12 -12 20 160 1 243 -27 41 -14 99 -41 130 -61 30 -19 57 -33
60 -31 11 12 -90 137 -146 180 -34 26 -58 47 -54 47 50 0 226 -72 250 -102 17
-22 63 -205 78 -311 8 -54 16 -101 19 -104 11 -11 18 95 11 185 -19 256 -231
781 -482 1192 -54 88 -144 236 -201 328 -197 323 -357 675 -436 966 -97 351
-113 746 -40 966 24 71 65 140 84 140 4 0 15 -21 24 -47z m-2203 -995 c9 -7
51 -56 95 -108 218 -262 440 -447 745 -623 119 -68 377 -206 518 -277 143 -71
236 -128 371 -228 128 -95 359 -319 464 -452 127 -159 268 -389 340 -552 l25
-57 -53 -15 c-30 -9 -60 -16 -68 -16 -7 0 -28 30 -47 66 -102 197 -240 382
-416 560 -220 221 -406 355 -750 539 -479 257 -745 445 -1024 722 -80 78 -146
141 -149 139 -13 -14 108 -175 192 -256 26 -25 75 -91 108 -148 226 -378 588
-732 1123 -1097 273 -186 487 -358 688 -555 129 -125 234 -245 230 -261 -2 -5
3 -9 10 -9 13 -1 98 -115 103 -140 2 -8 -14 -30 -35 -47 l-38 -33 -38 64 c-67
116 -167 239 -299 372 -167 166 -294 267 -586 464 -436 294 -650 454 -819 615
-355 335 -568 643 -683 989 -42 125 -58 244 -44 320 7 39 14 43 37 24z m544
-809 c170 -126 404 -269 640 -394 325 -171 515 -304 714 -498 210 -206 335
-374 451 -606 50 -100 113 -262 105 -270 -4 -3 -34 26 -67 64 -206 237 -513
500 -883 755 -334 231 -505 371 -715 586 -132 136 -296 333 -344 415 -22 38
-21 38 99 -52z m2028 -1551 c14 -11 62 -127 55 -134 -2 -1 -30 -13 -64 -27
l-60 -24 -13 41 c-6 23 -22 67 -35 99 l-24 57 62 0 c34 0 70 -6 79 -12z m91
-254 c9 -23 7 -54 -3 -54 -4 0 -29 -16 -54 -35 -25 -19 -48 -35 -51 -35 -5 0
-26 92 -26 115 0 13 27 20 96 23 21 1 34 -3 38 -14z m507 -682 c47 -72 68
-115 113 -227 62 -150 77 -230 82 -415 l5 -165 -20 55 c-19 53 -42 80 -69 80
-49 0 -84 -71 -84 -170 0 -131 63 -209 122 -150 l20 20 0 -20 c0 -11 -6 -22
-12 -25 -7 -2 -75 -27 -152 -56 -111 -41 -140 -49 -147 -38 -19 29 -58 168
-73 259 -48 291 -23 588 66 763 37 75 88 147 102 147 6 0 27 -26 47 -58z
m-917 -54 c14 -46 30 -105 36 -133 35 -158 63 -505 42 -505 -6 0 -14 5 -17 10
-3 6 -17 10 -30 10 -18 0 -30 -10 -44 -37 -43 -87 -34 -231 18 -284 l27 -27
-22 -51 c-13 -28 -25 -51 -28 -51 -3 0 -30 15 -59 34 l-54 35 -13 209 c-25
409 2 673 88 840 9 17 19 32 23 32 4 0 18 -37 33 -82z m-2849 -40 c28 -60 32
-120 10 -138 -9 -7 -38 -15 -65 -18 l-49 -4 6 -84 c6 -82 6 -83 -25 -113 -32
-33 -62 -38 -107 -21 -26 10 -26 10 -9 39 17 28 17 33 1 90 -9 33 -17 63 -17
66 0 3 15 5 33 5 64 0 100 67 79 144 l-10 36 37 0 c27 0 45 7 62 24 13 13 25
24 27 25 2 1 14 -23 27 -51z m185 -78 c30 -21 80 -61 110 -91 53 -51 54 -53
30 -57 -48 -7 -40 -18 32 -41 115 -37 214 -93 343 -193 59 -45 135 -118 123
-118 -3 0 -27 9 -53 21 -31 14 -51 17 -57 11 -6 -6 18 -24 70 -52 95 -51 295
-213 269 -218 -27 -5 -20 -22 11 -22 19 0 36 -12 59 -39 41 -49 143 -201 143
-213 0 -4 -17 -1 -37 8 -87 38 -273 78 -259 56 3 -5 23 -13 43 -17 49 -9 179
-65 229 -99 21 -14 34 -26 28 -26 -25 0 -252 -42 -299 -55 -27 -7 -70 -19 -94
-25 -76 -20 -37 -21 60 -1 131 27 328 53 364 49 33 -3 84 -64 134 -158 51 -98
52 -95 -31 -115 -218 -53 -568 -173 -568 -196 0 -13 5 -12 94 20 160 59 479
141 545 141 27 0 41 -47 48 -157 7 -104 -7 -189 -41 -267 -27 -61 -101 -161
-119 -161 -14 0 -140 243 -132 255 7 11 88 30 130 30 25 0 35 4 32 13 -3 8
-29 12 -88 11 -71 0 -92 -4 -137 -28 -108 -55 -189 -168 -194 -271 -4 -65 14
-67 29 -4 12 49 60 139 75 139 9 0 79 -147 104 -218 22 -62 22 -62 -66 -89
-76 -23 -189 -20 -265 6 -153 54 -294 198 -350 357 -38 107 -37 109 63 210
143 144 205 295 201 482 -2 50 1 96 7 101 5 4 32 16 59 26 93 34 75 46 -36 25
-52 -10 -54 -10 -76 19 -13 16 -39 35 -57 41 -74 24 -146 -18 -266 -155 -51
-58 -93 -105 -95 -105 -1 0 7 39 18 88 24 101 29 331 9 397 -10 36 -10 41 10
62 28 30 130 81 177 88 69 11 82 16 76 25 -9 14 -95 12 -147 -4 -25 -7 -66
-28 -92 -45 l-46 -32 -21 48 c-53 125 -139 180 -217 139 -53 -28 -78 -68 -126
-201 -7 -19 -8 -19 -21 5 -8 14 -19 50 -25 80 -19 96 -20 101 -30 95 -6 -3
-10 -16 -10 -28 -1 -21 -2 -20 -24 7 -13 15 -33 45 -45 66 l-21 37 49 -5 c53
-5 103 15 121 47 12 24 13 102 1 154 -9 37 -9 37 24 37 45 0 94 19 105 40 15
28 12 87 -5 121 l-16 30 43 -22 c24 -12 68 -39 98 -59z m2486 -37 c-13 -59
-25 -181 -26 -247 0 -65 -3 -75 -65 -191 -66 -124 -69 -145 -23 -145 10 0 18
-3 18 -8 0 -18 -45 -90 -78 -124 -35 -36 -39 -38 -102 -38 -77 0 -161 -25
-233 -70 -34 -21 -56 -28 -73 -24 -13 3 -24 9 -24 13 0 3 40 83 89 176 67 126
87 173 79 182 -7 9 -39 13 -99 13 l-89 0 0 135 0 135 164 0 c90 0 172 3 180 6
9 3 37 46 62 96 26 49 53 96 61 104 10 10 38 14 90 14 l75 0 -6 -27z m-1370
-40 c18 -18 18 -46 -6 -338 -5 -66 -10 -170 -10 -231 l0 -111 -72 5 -73 5 -85
80 c-83 78 -85 82 -81 121 6 73 49 223 83 292 42 84 100 151 153 175 50 23 69
24 91 2z m-1116 -400 c89 -91 132 -333 95 -543 -15 -85 -47 -193 -71 -241 -7
-14 -71 -83 -142 -153 -84 -82 -141 -147 -163 -186 -57 -102 -49 -96 -105 -74
-67 25 -140 98 -149 147 -14 74 32 208 185 542 48 104 111 255 141 334 59 162
92 211 141 211 22 0 41 -11 68 -37z m-895 -28 c153 -61 382 -217 483 -331 29
-32 52 -62 52 -66 0 -5 -15 -39 -34 -76 -18 -37 -57 -123 -86 -192 -29 -69
-56 -129 -60 -133 -4 -4 -26 22 -50 58 -85 133 -202 272 -442 527 -87 92 -158
171 -158 176 0 19 28 44 65 58 56 20 146 12 230 -21z m3380 -312 l6 -41 -58
24 c-32 13 -64 24 -70 24 -18 0 -17 2 23 61 20 30 46 74 57 99 l21 45 7 -85
c4 -47 11 -104 14 -127z m-1389 33 c6 -6 16 -49 22 -96 7 -47 15 -96 18 -110
4 -18 -1 -14 -18 16 -26 43 -93 140 -129 187 l-21 27 59 -6 c32 -4 63 -12 69
-18z m3263 -56 c147 -12 289 -39 396 -77 67 -24 170 -76 179 -92 3 -4 -50 -1
-117 7 -191 22 -743 21 -927 -1 -292 -37 -516 -86 -754 -166 -129 -44 -147
-54 -128 -73 9 -9 45 -1 154 35 511 168 1037 217 1693 157 66 -6 130 -13 142
-16 26 -5 95 -92 118 -148 13 -30 13 -37 3 -33 -7 3 -67 30 -133 61 -77 36
-111 48 -94 34 42 -36 132 -228 108 -228 -18 0 -203 51 -214 59 -5 4 -19 8
-30 8 -11 1 -79 13 -150 26 -158 31 -313 53 -460 67 -144 13 -553 13 -702 0
-154 -14 -386 -49 -397 -60 -14 -14 2 -42 21 -36 38 11 304 46 432 56 276 21
870 5 864 -24 -2 -13 -83 -42 -172 -63 -120 -27 -265 -22 -451 17 -167 35
-392 51 -440 31 -20 -8 -11 -10 50 -10 l75 -1 -53 -25 c-50 -23 -66 -25 -200
-25 -151 0 -179 -6 -169 -34 6 -14 21 -15 123 -9 132 7 136 3 49 -47 -184
-105 -337 -117 -435 -33 -50 43 -52 30 -4 -26 20 -23 34 -45 31 -48 -4 -3 -35
-6 -69 -6 -105 -1 -164 44 -203 154 -14 38 -14 44 0 51 19 11 19 37 0 44 -8 4
-15 18 -16 33 l-1 26 -10 -29 c-10 -28 -12 -28 -62 -22 -28 3 -145 6 -260 6
-203 0 -208 0 -203 20 7 25 -9 26 -23 1 -9 -18 -85 -40 -96 -28 -6 6 50 123
75 156 l19 24 103 -12 c127 -15 281 -44 412 -77 54 -13 103 -22 108 -19 23 15
5 35 -43 50 -80 23 -330 72 -443 86 -55 6 -102 13 -104 15 -3 2 6 16 20 31
l24 26 -46 -27 c-47 -27 -83 -32 -108 -17 -12 8 -8 17 19 48 57 65 76 76 117
68 59 -11 197 -52 396 -117 136 -45 190 -59 198 -51 6 6 8 16 5 21 -7 12 -390
139 -503 168 -40 10 -73 21 -73 24 0 13 93 50 155 61 102 19 196 1 320 -61 55
-28 111 -59 124 -69 22 -17 23 -19 7 -49 -21 -40 -20 -55 4 -101 24 -49 117
-151 137 -151 27 0 191 91 236 131 39 34 51 39 94 39 73 0 193 33 348 95 267
107 551 175 765 184 19 0 95 -4 169 -9z m-3876 -130 c69 -55 62 -280 -13 -431
-57 -116 -189 -254 -317 -332 -88 -54 -56 -62 35 -10 24 14 45 23 47 21 1 -1
10 -30 20 -63 48 -171 182 -331 339 -406 78 -38 96 -42 181 -47 56 -3 113 0
141 7 25 7 49 10 51 7 10 -10 -28 -114 -56 -153 -35 -48 -130 -100 -202 -109
-134 -18 -406 121 -749 385 -211 162 -254 217 -254 326 0 104 32 154 229 350
94 94 224 230 290 304 147 165 200 196 258 151z m2441 -79 c61 -15 67 -28 25
-64 -20 -18 -73 -51 -117 -75 l-80 -42 -40 45 c-22 25 -48 62 -57 82 -17 35
-17 37 1 50 21 15 206 18 268 4z m-1169 -170 c3 -5 1 -12 -5 -16 -5 -3 -10 1
-10 9 0 18 6 21 15 7z m2878 -105 l152 -31 41 -61 c41 -62 94 -202 94 -248 0
-75 -35 -74 -107 4 -30 33 -59 60 -64 60 -6 0 2 -20 16 -45 15 -24 24 -49 20
-54 -3 -6 -38 4 -84 24 -113 48 -308 117 -438 155 -62 18 -113 37 -113 42 0 5
12 27 27 49 20 30 44 48 97 73 39 18 82 42 96 54 30 25 40 24 263 -22z m-2378
-47 c43 -32 120 -59 171 -59 27 0 34 -5 43 -32 26 -74 94 -129 178 -144 38 -7
39 -8 116 -164 43 -86 92 -173 109 -194 l32 -39 68 6 c82 7 74 15 147 -158 59
-138 107 -207 173 -248 41 -26 57 -29 123 -29 65 0 85 4 140 31 119 59 226
200 335 441 75 166 221 430 237 430 31 0 226 -54 378 -105 189 -63 255 -90
255 -105 0 -22 -65 -106 -136 -177 -85 -83 -212 -169 -416 -282 -81 -45 -149
-81 -152 -81 -2 0 5 18 15 41 30 60 18 67 -21 12 -52 -72 -226 -243 -300 -293
-125 -85 -274 -129 -388 -116 -122 14 -234 130 -369 381 -45 84 -57 81 -23 -7
11 -29 20 -57 20 -61 0 -5 -33 17 -72 48 -40 32 -188 144 -328 250 -383 289
-474 377 -550 533 l-28 57 0 -58 c-1 -58 -27 -157 -42 -157 -22 0 -49 121 -50
222 0 91 -12 85 170 86 124 1 125 1 165 -29z m143 21 c39 0 52 -4 52 -15 0
-29 -143 -14 -175 18 -7 6 3 8 30 3 22 -3 64 -6 93 -6z m-550 -16 c-9 -9 -21
-13 -27 -9 -16 10 -3 25 22 25 20 0 20 -1 5 -16z m3052 -13 c19 -6 54 -15 78
-21 42 -11 42 -11 42 -58 0 -58 -8 -72 -36 -61 -25 9 -154 127 -154 140 0 12
26 11 70 0z m-1785 -218 c4 -32 16 -105 26 -163 l19 -105 -38 -36 c-33 -31
-48 -38 -112 -47 -60 -9 -79 -8 -95 2 -11 8 -58 86 -103 174 l-83 161 38 10
c56 16 58 15 77 -39 16 -46 90 -170 100 -170 2 0 -18 51 -45 113 l-49 112 78
6 c42 3 95 13 117 21 61 24 63 23 70 -39z m805 -188 c0 -3 -40 -87 -89 -188
-99 -204 -168 -302 -253 -360 -104 -72 -219 -75 -291 -7 l-41 38 18 58 c27 88
88 212 132 271 73 95 152 145 254 158 l54 7 -33 -38 c-41 -46 -67 -103 -77
-168 -7 -52 8 -59 21 -9 19 79 109 177 198 219 47 21 107 32 107 19z m-2898
-72 c210 -393 378 -1034 463 -1760 l6 -52 -48 -6 c-27 -4 -60 -10 -75 -15 -25
-8 -27 -6 -32 28 -3 20 -8 87 -11 147 -34 602 -172 1251 -343 1603 -43 89 -44
93 -26 107 11 8 21 15 24 15 3 0 22 -30 42 -67z m303 -375 c8 -21 14 -38 11
-38 -3 0 -36 49 -71 105 l-18 30 31 -30 c17 -16 38 -47 47 -67z m-231 -143
c58 -217 62 -242 41 -265 -27 -29 -190 -106 -280 -132 -61 -17 -107 -23 -190
-23 -98 0 -116 3 -165 26 -123 58 -170 154 -136 274 11 36 21 55 29 51 192
-87 298 -105 399 -67 99 38 190 132 204 210 6 35 43 77 56 63 3 -4 22 -65 42
-137z m244 -7 c221 -368 374 -691 468 -990 19 -60 34 -116 34 -124 0 -10 -13
-14 -45 -14 -57 0 -144 -33 -200 -76 -25 -19 -47 -34 -49 -34 -2 0 -9 46 -15
103 -22 196 -94 597 -137 771 -14 54 -23 100 -21 102 10 10 129 -393 191 -644
24 -101 48 -187 51 -190 9 -9 -3 99 -22 213 -44 264 -153 592 -228 691 -14 18
-25 36 -25 41 0 5 -20 70 -44 146 -24 75 -42 137 -41 137 2 0 39 -60 83 -132z
m2620 -136 l2 -107 -36 -20 c-59 -32 -169 -158 -212 -243 -40 -80 -80 -207
-69 -219 4 -3 8 -4 10 -2 1 2 28 56 59 119 114 229 259 350 419 350 346 0 548
-334 693 -1145 73 -410 100 -671 99 -960 -1 -403 -82 -645 -215 -645 -13 0
-56 16 -96 35 -378 181 -1054 825 -1401 1335 -85 124 -104 172 -94 233 13 82
121 197 185 197 25 0 47 -16 117 -82 179 -172 427 -367 673 -529 205 -135 357
-206 478 -224 39 -5 26 3 -94 64 -76 38 -144 75 -151 83 -7 7 -27 58 -45 113
-125 384 -257 636 -362 691 -16 8 -28 12 -28 9 0 -2 18 -28 39 -57 22 -28 52
-74 67 -101 l27 -50 -24 -18 c-36 -27 -274 -159 -287 -159 -12 0 -199 158
-240 202 -23 25 -23 26 -7 93 8 38 49 157 90 266 100 267 165 522 165 651 0
28 7 37 43 60 23 16 74 59 112 96 39 38 72 70 75 70 3 1 6 -47 8 -106z m-293
-164 c-23 -187 -61 -331 -142 -548 -36 -96 -70 -186 -75 -200 l-9 -24 -20 31
c-27 43 -91 82 -154 96 l-53 11 22 60 c23 60 85 187 106 216 8 11 10 -1 8 -48
-2 -34 0 -62 4 -62 29 0 45 245 26 391 l-8 56 83 5 c66 3 95 10 147 35 36 17
67 32 68 32 2 1 1 -23 -3 -51z m-2484 -92 c16 -86 49 -327 64 -464 l16 -144
-49 -51 c-26 -29 -69 -80 -94 -114 l-46 -62 -22 62 c-47 130 -164 416 -226
555 -36 79 -64 145 -62 147 2 1 41 12 88 24 47 12 132 45 190 74 101 50 106
51 119 33 8 -10 18 -37 22 -60z m2108 -122 c61 -18 72 -36 42 -72 -45 -58
-112 -180 -142 -262 l-31 -85 -77 -37 c-42 -21 -112 -50 -156 -64 -44 -15
-119 -44 -167 -65 -49 -20 -88 -33 -88 -27 0 5 9 55 20 109 54 266 159 430
317 495 71 29 200 33 282 8z m40 -507 c44 -29 66 -63 76 -119 10 -51 -1 -63
-32 -38 -55 43 -143 18 -219 -62 -109 -113 -118 -237 -28 -368 40 -59 37 -69
-24 -77 -141 -19 -251 169 -212 362 25 126 118 261 215 314 58 31 168 25 224
-12z m-1322 -114 c121 -121 195 -222 254 -348 62 -132 82 -226 77 -359 -5
-123 -17 -159 -59 -176 -45 -19 -89 3 -171 84 -130 129 -180 144 -82 24 164
-201 234 -337 234 -458 0 -108 -60 -138 -168 -84 -29 14 -68 44 -87 67 -26 30
-35 36 -35 22 0 -10 11 -32 24 -50 46 -60 72 -281 45 -379 -15 -54 -59 -96
-100 -96 -44 0 -132 53 -175 106 -20 24 -39 43 -41 40 -10 -9 12 -59 42 -98
l33 -41 -15 -51 c-37 -129 -112 -249 -176 -283 -41 -21 -111 -12 -143 18 -40
38 -64 135 -64 260 l0 109 40 0 c53 0 51 13 -7 35 -88 34 -150 109 -179 220
-22 82 -19 99 23 119 23 11 39 14 41 7 10 -29 52 -79 91 -106 77 -54 170 -34
267 60 57 54 50 77 -9 32 -50 -38 -154 -72 -191 -63 -69 17 -141 129 -160 247
-6 38 -14 69 -18 69 -9 0 -18 -73 -15 -130 2 -45 2 -45 -47 -69 -44 -22 -51
-23 -74 -10 -88 49 -119 270 -67 475 14 54 43 134 65 178 22 44 37 82 35 85
-8 8 -56 -41 -86 -88 -26 -40 -68 -153 -83 -223 -5 -21 -12 -28 -29 -28 -53 1
-71 41 -70 155 1 208 114 512 258 693 36 45 70 82 75 82 6 0 10 -24 10 -53 0
-30 3 -87 6 -128 l6 -74 -35 -19 c-40 -21 -107 -86 -89 -86 7 0 36 13 65 29
156 88 284 94 501 24 13 -4 17 -2 14 8 -6 19 -73 56 -135 75 -76 22 -72 43 18
83 137 62 225 64 352 11 39 -16 73 -27 76 -25 9 10 -42 54 -90 77 -43 20 -51
29 -60 63 -6 22 -12 48 -15 58 -11 35 18 14 123 -90z m923 28 c-100 -141 -123
-334 -56 -474 30 -62 39 -74 90 -112 l39 -30 -60 -12 c-199 -40 -532 -71 -545
-50 -4 7 -8 28 -8 48 0 47 -34 173 -66 248 -15 34 -25 63 -23 65 28 26 183
128 258 171 109 61 330 161 389 174 2 1 -6 -12 -18 -28z m1223 -473 c57 -152
98 -270 94 -274 -4 -4 -207 128 -305 198 l-83 60 103 60 c57 32 107 63 113 69
22 22 35 3 78 -113z"/>
<path d="M3856 9970 c-10 -25 19 -157 59 -265 25 -68 41 -134 50 -207 54 -441
226 -885 551 -1419 318 -526 487 -899 565 -1247 21 -93 22 -109 11 -174 -21
-120 2 -105 43 28 139 448 45 1046 -246 1569 -78 141 -158 259 -283 420 -142
183 -153 198 -232 310 -211 298 -367 590 -470 880 -25 71 -45 114 -48 105z
m318 -778 c93 -153 204 -310 364 -516 136 -176 204 -273 272 -392 199 -343
305 -673 329 -1029 8 -112 0 -349 -11 -361 -2 -2 -18 46 -36 107 -63 218 -202
535 -345 790 -36 64 -124 215 -197 335 -262 433 -426 822 -500 1188 -26 128
-25 131 12 66 17 -30 67 -115 112 -188z"/>
<path d="M4803 6499 c-37 -11 -95 -64 -118 -108 -8 -16 -17 -48 -20 -72 l-5
-44 19 41 c11 23 39 62 63 87 148 155 278 -4 402 -493 l34 -135 1 65 c1 145
-44 332 -115 477 -51 103 -109 165 -170 182 -45 12 -48 12 -91 0z"/>
<path d="M4253 5043 c-7 -2 -13 -11 -13 -19 0 -10 14 -14 50 -14 27 0 68 -7
90 -16 68 -27 68 2 0 36 -37 19 -99 25 -127 13z"/>
<path d="M4191 4978 c-41 -23 -28 -31 44 -29 44 1 95 -5 138 -17 81 -23 93 -7
20 28 -58 28 -167 37 -202 18z"/>
<path d="M1280 5606 c-89 -23 -178 -105 -195 -178 -9 -36 7 -36 26 -2 23 45
118 122 186 151 91 40 82 56 -17 29z"/>
</g>
</svg>
